<?xml version="1.0" encoding="UTF-8"?>
<svg width="2e3pt" height="2446pt" version="1.1" viewBox="0 0 2000 2446" xmlns="http://www.w3.org/2000/svg">
<g>
<path d="m747.33 260.24c81.289-42.836 164.7-81.664 249.53-117.04 190.64 80.406 375.79 176.38 544.18 297.26 88.129 64.531 172.56 136.29 238.91 223.69 40.957 54.551 75.473 116.01 87.656 183.84 13.68 83.785 9.2773 169.22-0.3125 253.17-15.488 128.35-45.441 254.58-80.66 378.85-71.07 245.3-162.27 484.41-265.18 718-6.918 18.785-26.648 26.805-43.082 35.215-55.973 25.227-116.66 37.883-176.8 48.574-198.59 32.301-402.28 32.223-601.02 1.2539-64.543-11.238-129.95-24.051-189.54-52.188-14.309-7.7031-31.605-14.777-38.051-30.969-75.395-170.25-143.71-343.71-203.46-520.09-59.59-178.57-112.58-360.38-139.15-547.12-12.973-98.957-20.68-200.59-1.4961-299.23 24.215-101.47 91.195-186.12 163.37-258.67 132.55-129.69 291.82-228.33 455.11-314.55m150.71 277.61c-0.078125 35.449-0.078125 70.82 0 106.19 6.2109 0.15625 18.711 0.47266 24.922 0.62891 1.6484-13.125-3.1445-28.844 3.3789-40.555 12.578-1.1016 25.156-0.94531 37.738-1.0234 0.078125-5.3438 0.15625-15.875 0.23438-21.223-13.758-0.15625-27.516-0.39063-41.273-0.55078 0.078125-5.3438 0.3125-15.875 0.39062-21.219 14.625 0 29.324-0.078125 44.027-0.078125v-22.168h-69.418m150.94 0c-0.078124 35.527-0.078124 70.977 0.078126 106.43 24.453 0.39062 48.98 0.3125 73.508-0.16016-0.15625-5.6562-0.39453-16.898-0.55078-22.555-16.273-0.31641-32.469-0.55078-48.742-0.94531 0.15625-5.1094 0.55078-15.168 0.70703-20.199 14.469 0 28.934-0.078125 43.398-0.15625 0-5.1094-0.078125-15.406-0.15625-20.594-14.547-0.078125-29.09-0.15625-43.633-0.23828 0.078124-4.793 0.078124-14.461 0.078124-19.254 15.328-0.078125 30.738-0.078125 46.148-0.15625 0-5.5039 0.15625-16.586 0.23438-22.09-23.742-0.15625-47.406-0.15625-71.07-0.078126m155.19 0c-0.23828 35.449-0.23828 70.898 0 106.27 6.2891 0.16016 18.945 0.31641 25.234 0.39453 0.47266-13.832 0.86328-27.59 1.4141-41.344 13.207 0.15625 26.418 0.23828 39.703 0.31641 0.078125-5.4258 0.39062-16.191 0.55078-21.617-13.836-0.23438-27.594-0.3125-41.352-0.46875 0.078125-5.3477 0.15625-15.957 0.23438-21.301 14.543 0 29.086-0.078125 43.711-0.078125-0.078124-5.5039-0.15625-16.664-0.15625-22.246-23.113 0-46.227 0-69.34 0.078124m-470.13 106.5c8.4922-0.16016 16.906-0.23828 25.395-0.31641 0.31641-15.09 0.70703-30.258 1.9648-45.273 12.109 13.047 20.441 28.77 27.988 44.723 10.457 0.47266 20.91 0.86719 31.367 1.2578-8.332-14.617-16.98-29-26.02-43.227 16.43-10.613 27.594-32.383 14.621-50.148-18.477-21.301-50.629-11.16-75.234-13.598-0.23828 35.527-0.23828 71.055-0.082032 106.58m-315.72 128.04l0.70703 10.062c145.6-15.957 291.67-28.77 437.97-35.133 252.91-12.5 506.05 8.25 757.39 35.211l0.86328-10.297c-181.68-42.285-367.53-67.438-554.09-72.469-216.27-3.3789-432.47 23.66-642.85 72.625m922.02 201.45c5.7383 9.9062 11.555 19.73 17.609 29.477 28.457-18.707 86.082-25.152 89.938 20.828-28.695-5.5-61.559-12.105-87.266 6.2891-30.738 18.941-33.883 68.852-5.582 91.41 24.844 18.234 59.121 19.57 87.344 8.5664 12.184 3.3008 30.66 11.867 39.859-0.55078 3.3008-33.324 1.4922-66.887 1.5703-100.37 0.078124-23.812-8.4102-49.359-29.48-62.484-34.434-22.953-80.109-11.871-113.99 6.8359m-448.35 100.06c-95.988 21.93-169.1 101.71-202.12 191.94-7.8633 16.742 2.5156 38.043 20.52 42.129 33.098 10.141 65.957 21.617 99.684 29.238 17.453 0.078125 26.73-15.953 31.605-30.418 16.664-44.016 51.57-87.242 100.86-94.16 45.363-5.582 97.801-1.9648 132.47 31.441 36.715 34.426 35.691 93.531 14.543 135.89-24.684 42.367-77.359 50.617-121.86 54.863-25.312 3.3789-60.77-3.6953-73.742 24.914-5.9727 23.66-3.7734 48.656-3.2227 72.863 0.23828 19.727 19.262 34.82 38.129 35.211 50.395 3.7734 107.86 8.1758 144.97 46.848 37.578 48.414 40.961 131.65-11.871 170.87-34.039 24.211-78.852 27.355-119.1 22.168-49.531-5.8164-86.871-48.418-101.65-93.77-4.6406-15.09-11.793-34.898-31.211-34.113-34.434 5.8164-67.766 17.059-101.26 26.723-15.332 3.6953-27.594 20.594-23.82 36.234 32.074 102.18 118.32 191.07 226.96 207.34 90.801 11.555 190.49-0.625 264.86-57.926 87.105-66.496 110.06-197.52 62.027-293.72-19.496-40.871-60.141-63.746-97.562-85.438 0.55078-2.125 1.6523-6.3672 2.1992-8.5664 28.855-17.688 60.695-32.777 81.211-60.836 38.051-44.723 45.676-107.05 38.602-163.49-7.3125-69.48-49.527-134.09-109.59-169.54-77.516-47.234-174.21-53.051-261.64-36.703m442.14 94.711c-0.082032 11.867 0.078125 23.816 0.39062 35.762 50.316 1.5742 100.87 3.4609 151.1 0.078125 0-11.711-0.15625-23.422-0.31641-35.055-50.312-2.8281-100.86-3.1445-151.18-0.78516z" fill="#fff"/>
<path d="m759.67 558.21c12.816-0.78516 40.254 3.7734 25.16 21.77-6.2109 1.0234-18.555 3.0664-24.766 4.0898-0.15625-8.6484-0.3125-17.293-0.39453-25.859z" fill="#fff"/>
<path d="m1387.2 1058.8c19.969-7.8633 64.938-6.1328 58.57 25.148-6.2109 25.152-40.723 19.652-59.355 13.676-18.082-5.1875-15.879-33.719 0.78516-38.824z" fill="#fff"/>
<path d="m995.91 0h3.7734c255.66 108.46 506.45 237.84 718.71 419.01 104.32 92.434 202.83 199.88 248.66 334.12 33.176 100.76 26.574 208.99 20.363 313.29-30.188 283.82-117.61 557.66-214.15 824.98-47.641 130.16-100.16 258.43-155.66 385.45-11.398 26.566-33.883 46.609-58.098 61.465-45.91 27.117-97.328 42.992-148.82 55.727-175.47 41.5-356.92 48.574-536.48 41.027-128.3-10.297-258.25-23.895-380.03-67.832-46.855-18.703-99.137-43.465-119.34-93.059-121.54-278.63-229.01-564.34-304.72-859.01-35.141-136.21-59.355-275.1-70.125-415.4v-99.898c6.0547-43.859 7.9414-88.66 21.539-131.1 32.707-109.25 103.46-201.84 181.13-283.27 129.32-126.7 280.74-228.48 438.52-316.12 114.54-63.82 233.1-120.41 354.71-169.38m-392.29 249.79c-138.21 82.293-272.56 174.72-383.18 292.39-79.324 85.281-149.06 188.09-163.45 306.3-16.117 141.87 4.4805 284.84 32.234 424.04 71.855 336.01 193.32 659.21 328.85 974.16 13.051 38.438 52.828 55.336 87.344 69.641 77.984 29.867 160.85 44.25 243.32 55.332 188.36 23.109 380.19 20.828 567.53-9.9805 76.023-14.227 154.4-29.711 221.78-69.562 28.379-15.48 38.285-47.707 50.234-75.453 122.56-286.18 231.37-579.51 302.68-882.98 34.117-153.19 61.398-310.7 47.484-468.14-8.4141-110.59-67.219-209.86-137.82-292.46-108.02-124.5-243.55-221.57-383.49-307.01-134.67-80.406-274.92-151.54-420.12-210.96-135.69 55.176-266.9 121.12-393.39 194.69z" fill="#019fe3"/>
<path d="m603.62 249.79c126.49-73.57 257.7-139.52 393.39-194.69 145.21 59.422 285.46 130.55 420.12 210.96 139.94 85.438 275.47 182.5 383.49 307.01 70.598 82.605 129.4 181.88 137.82 292.46 13.914 157.43-13.367 314.95-47.484 468.14-71.309 303.47-180.11 596.8-302.68 882.98-11.949 27.746-21.855 59.973-50.234 75.453-67.375 39.852-145.75 55.336-221.78 69.562-187.34 30.809-379.17 33.09-567.53 9.9805-82.469-11.082-165.33-25.465-243.32-55.332-34.516-14.305-74.293-31.203-87.344-69.641-135.54-314.95-257-638.14-328.85-974.16-27.754-139.2-48.352-282.17-32.234-424.04 14.387-118.21 84.121-221.02 163.45-306.3 110.61-117.66 244.97-210.09 383.18-292.39m143.71 10.453c-163.29 86.223-322.56 184.86-455.11 314.55-72.172 72.547-139.15 157.2-163.37 258.67-19.184 98.641-11.477 200.27 1.4961 299.23 26.57 186.75 79.559 368.55 139.15 547.12 59.75 176.38 128.07 349.84 203.46 520.09 6.4453 16.191 23.742 23.266 38.051 30.969 59.59 28.137 125 40.949 189.54 52.188 198.74 30.969 402.44 31.047 601.02-1.2539 60.141-10.691 120.83-23.348 176.8-48.574 16.434-8.4102 36.164-16.43 43.082-35.215 102.91-233.59 194.11-472.7 265.18-718 35.219-124.27 65.172-250.5 80.66-378.85 9.5898-83.945 13.992-169.38 0.3125-253.17-12.184-67.832-46.699-129.29-87.656-183.84-66.352-87.402-150.79-159.16-238.91-223.69-168.4-120.89-353.54-216.86-544.18-297.26-84.828 35.371-168.24 74.199-249.53 117.04z" fill="#015597"/>
<path d="m898.04 537.85h69.418v22.168c-14.703 0-29.402 0.078125-44.027 0.078125-0.078125 5.3438-0.3125 15.875-0.39062 21.219 13.758 0.16016 27.516 0.39453 41.273 0.55078-0.078125 5.3477-0.15625 15.879-0.23438 21.223-12.582 0.078125-25.16-0.078125-37.738 1.0234-6.5234 11.711-1.7305 27.43-3.3789 40.555-6.2109-0.15625-18.711-0.47266-24.922-0.62891-0.078125-35.367-0.078125-70.738 0-106.19z" fill="#015597"/>
<path d="m1049 537.85c23.664-0.078124 47.328-0.078124 71.07 0.078126-0.078125 5.5039-0.23438 16.586-0.23438 22.09-15.41 0.078125-30.82 0.078125-46.148 0.15625 0 4.793 0 14.461-0.078124 19.254 14.543 0.082031 29.086 0.16016 43.633 0.23828 0.078125 5.1875 0.15625 15.484 0.15625 20.594-14.465 0.078125-28.93 0.15625-43.398 0.15625-0.15625 5.0312-0.55078 15.09-0.70703 20.199 16.273 0.39453 32.469 0.62891 48.742 0.94531 0.15625 5.6562 0.39453 16.898 0.55078 22.555-24.527 0.47266-49.055 0.55078-73.508 0.16016-0.15625-35.449-0.15625-70.898-0.078126-106.43z" fill="#015597"/>
<path d="m1204.2 537.85c23.113-0.078124 46.227-0.078124 69.34-0.078124 0 5.582 0.078126 16.742 0.15625 22.246-14.625 0-29.168 0.078125-43.711 0.078125-0.078125 5.3438-0.15625 15.953-0.23438 21.301 13.758 0.15625 27.516 0.23437 41.352 0.46875-0.16016 5.4258-0.47266 16.191-0.55078 21.617-13.285-0.078125-26.496-0.16016-39.703-0.31641-0.55078 13.754-0.94141 27.512-1.4141 41.344-6.2891-0.078125-18.945-0.23438-25.234-0.39453-0.23828-35.367-0.23828-70.816 0-106.27z" fill="#015597"/>
<path d="m734.04 644.36c-0.15625-35.527-0.15625-71.055 0.082032-106.58 24.605 2.4375 56.758-7.7031 75.234 13.598 12.973 17.766 1.8086 39.535-14.621 50.148 9.0391 14.227 17.688 28.609 26.02 43.227-10.457-0.39062-20.91-0.78516-31.367-1.2578-7.5469-15.953-15.879-31.676-27.988-44.723-1.2578 15.016-1.6484 30.184-1.9648 45.273-8.4883 0.078126-16.902 0.15625-25.395 0.31641m25.629-86.145c0.082031 8.5664 0.23828 17.211 0.39453 25.859 6.2109-1.0234 18.555-3.0664 24.766-4.0898 15.094-17.996-12.344-22.555-25.16-21.77z" fill="#015597"/>
<path d="m418.32 772.39c210.38-48.965 426.57-76.004 642.85-72.625 186.55 5.0312 372.41 30.184 554.09 72.469l-0.86328 10.297c-251.34-26.961-504.48-47.711-757.39-35.211-146.3 6.3633-292.38 19.176-437.97 35.133z" fill="#015597"/>
<path d="m1340.3 973.84c33.883-18.707 79.559-29.789 113.99-6.8359 21.07 13.125 29.559 38.672 29.48 62.484-0.078126 33.484 1.7305 67.047-1.5703 100.37-9.1992 12.418-27.676 3.8516-39.859 0.55078-28.223 11.004-62.5 9.668-87.344-8.5664-28.301-22.559-25.156-72.469 5.582-91.41 25.707-18.395 58.57-11.789 87.266-6.2891-3.8555-45.98-61.48-39.535-89.938-20.828-6.0547-9.7461-11.871-19.57-17.609-29.477m46.852 84.969c-16.664 5.1055-18.867 33.637-0.78516 38.824 18.633 5.9766 53.145 11.477 59.355-13.676 6.3672-31.281-38.602-33.012-58.57-25.148z" fill="#1b1b1b"/>
<path d="m891.98 1073.9c87.422-16.348 184.12-10.531 261.64 36.703 60.062 35.449 102.28 100.06 109.59 169.54 7.0742 56.434-0.55078 118.77-38.602 163.49-20.516 28.059-52.355 43.148-81.211 60.836-0.54688 2.1992-1.6484 6.4414-2.1992 8.5664 37.422 21.691 78.066 44.566 97.562 85.438 48.035 96.203 25.078 227.23-62.027 293.72-74.371 57.301-174.06 69.48-264.86 57.926-108.65-16.27-194.89-105.16-226.96-207.34-3.7734-15.641 8.4883-32.539 23.82-36.234 33.492-9.6641 66.824-20.906 101.26-26.723 19.418-0.78516 26.57 19.023 31.211 34.113 14.781 45.352 52.121 87.953 101.65 93.77 40.25 5.1875 85.062 2.043 119.1-22.168 52.832-39.219 49.449-122.46 11.871-170.87-37.105-38.672-94.574-43.074-144.97-46.848-18.867-0.39062-37.891-15.484-38.129-35.211-0.55078-24.207-2.75-49.203 3.2227-72.863 12.973-28.609 48.43-21.535 73.742-24.914 44.496-4.2461 97.172-12.496 121.86-54.863 21.148-42.363 22.172-101.47-14.543-135.89-34.668-33.406-87.105-37.023-132.47-31.441-49.293 6.918-84.199 50.145-100.86 94.16-4.875 14.465-14.152 30.496-31.605 30.418-33.727-7.6211-66.586-19.098-99.684-29.238-18.004-4.0859-28.383-25.387-20.52-42.129 33.02-90.23 106.13-170.01 202.12-191.94z" fill="#1b1b1b"/>
<path d="m1334.1 1168.6c50.312-2.3594 100.86-2.043 151.18 0.78516 0.16016 11.633 0.31641 23.344 0.31641 35.055-50.234 3.3828-100.79 1.4961-151.1-0.078125-0.3125-11.945-0.47266-23.895-0.39062-35.762z" fill="#1b1b1b"/>
</g>
</svg>
